<?xml version="1.0" encoding="UTF-8" standalone="no"?>
<!-- Created with Inkscape (http://www.inkscape.org/) -->

<svg
   xmlns:dc="http://purl.org/dc/elements/1.1/"
   xmlns:cc="http://creativecommons.org/ns#"
   xmlns:rdf="http://www.w3.org/1999/02/22-rdf-syntax-ns#"
   xmlns:svg="http://www.w3.org/2000/svg"
   xmlns="http://www.w3.org/2000/svg"
   xmlns:sodipodi="http://sodipodi.sourceforge.net/DTD/sodipodi-0.dtd"
   xmlns:inkscape="http://www.inkscape.org/namespaces/inkscape"
   width="237.40157"
   height="237.40157"
   id="svg8228"
   version="1.1"
   inkscape:version="0.48.4 r9939"
   sodipodi:docname="dots.svg">
  <defs
     id="defs8230" />
  <sodipodi:namedview
     id="base"
     pagecolor="#ffffff"
     bordercolor="#666666"
     borderopacity="1.0"
     inkscape:pageopacity="0.0"
     inkscape:pageshadow="2"
     inkscape:zoom="2.8"
     inkscape:cx="36.407322"
     inkscape:cy="106.2619"
     inkscape:document-units="mm"
     inkscape:current-layer="layer1"
     showgrid="false"
     units="mm"
     showguides="true"
     objecttolerance="10000"
     guidetolerance="10000"
     inkscape:snap-global="true"
     inkscape:window-width="1790"
     inkscape:window-height="1010"
     inkscape:window-x="65"
     inkscape:window-y="24"
     inkscape:window-maximized="1">
    <inkscape:grid
       type="xygrid"
       id="grid8236"
       empspacing="5"
       visible="true"
       enabled="true"
       snapvisiblegridlinesonly="true"
       units="mm"
       dotted="false"
       spacingx="6mm"
       spacingy="6mm"
       originx="3mm"
       originy="3mm" />
  </sodipodi:namedview>
  <metadata
     id="metadata8233">
    <rdf:RDF>
      <cc:Work
         rdf:about="">
        <dc:format>image/svg+xml</dc:format>
        <dc:type
           rdf:resource="http://purl.org/dc/dcmitype/StillImage" />
        <dc:title />
      </cc:Work>
    </rdf:RDF>
  </metadata>
  <g
     inkscape:label="Layer 1"
     inkscape:groupmode="layer"
     id="layer1"
     transform="translate(0,-814.96061)">
    <g
       id="g9191">
      <path
         transform="matrix(0.11666667,0,0,0.11666667,18.059075,826.24616)"
         d="m -53.149605,24.803141 c 0,5.870743 -4.759178,10.629921 -10.629921,10.629921 -5.870743,0 -10.629921,-4.759178 -10.629921,-10.629921 0,-5.870744 4.759178,-10.629921 10.629921,-10.629921 5.870743,0 10.629921,4.759177 10.629921,10.629921 z"
         sodipodi:ry="10.629921"
         sodipodi:rx="10.629921"
         sodipodi:cy="24.803141"
         sodipodi:cx="-63.779526"
         id="path8238"
         style="fill:#aea79f;stroke:#2c001e;stroke-width:0;stroke-miterlimit:4;stroke-dasharray:none;stroke-dashoffset:0"
         sodipodi:type="arc" />
      <path
         transform="matrix(0.11666667,0,0,0.11666667,39.334701,826.24616)"
         d="m -53.149605,24.803141 c 0,5.870743 -4.759178,10.629921 -10.629921,10.629921 -5.870743,0 -10.629921,-4.759178 -10.629921,-10.629921 0,-5.870744 4.759178,-10.629921 10.629921,-10.629921 5.870743,0 10.629921,4.759177 10.629921,10.629921 z"
         sodipodi:ry="10.629921"
         sodipodi:rx="10.629921"
         sodipodi:cy="24.803141"
         sodipodi:cx="-63.779526"
         id="path8238-9"
         style="fill:#aea79f;stroke:#2c001e;stroke-width:0;stroke-miterlimit:4;stroke-dasharray:none;stroke-dashoffset:0"
         sodipodi:type="arc" />
      <path
         transform="matrix(0.11666667,0,0,0.11666667,60.594544,826.24616)"
         d="m -53.149605,24.803141 c 0,5.870743 -4.759178,10.629921 -10.629921,10.629921 -5.870743,0 -10.629921,-4.759178 -10.629921,-10.629921 0,-5.870744 4.759178,-10.629921 10.629921,-10.629921 5.870743,0 10.629921,4.759177 10.629921,10.629921 z"
         sodipodi:ry="10.629921"
         sodipodi:rx="10.629921"
         sodipodi:cy="24.803141"
         sodipodi:cx="-63.779526"
         id="path8238-4"
         style="fill:#aea79f;stroke:#2c001e;stroke-width:0;stroke-miterlimit:4;stroke-dasharray:none;stroke-dashoffset:0"
         sodipodi:type="arc" />
      <path
         transform="matrix(0.11666667,0,0,0.11666667,81.854387,826.24616)"
         d="m -53.149605,24.803141 c 0,5.870743 -4.759178,10.629921 -10.629921,10.629921 -5.870743,0 -10.629921,-4.759178 -10.629921,-10.629921 0,-5.870744 4.759178,-10.629921 10.629921,-10.629921 5.870743,0 10.629921,4.759177 10.629921,10.629921 z"
         sodipodi:ry="10.629921"
         sodipodi:rx="10.629921"
         sodipodi:cy="24.803141"
         sodipodi:cx="-63.779526"
         id="path8238-0"
         style="fill:#aea79f;stroke:#2c001e;stroke-width:0;stroke-miterlimit:4;stroke-dasharray:none;stroke-dashoffset:0"
         sodipodi:type="arc" />
      <path
         transform="matrix(0.11666667,0,0,0.11666667,103.11423,826.24616)"
         d="m -53.149605,24.803141 c 0,5.870743 -4.759178,10.629921 -10.629921,10.629921 -5.870743,0 -10.629921,-4.759178 -10.629921,-10.629921 0,-5.870744 4.759178,-10.629921 10.629921,-10.629921 5.870743,0 10.629921,4.759177 10.629921,10.629921 z"
         sodipodi:ry="10.629921"
         sodipodi:rx="10.629921"
         sodipodi:cy="24.803141"
         sodipodi:cx="-63.779526"
         id="path8238-8"
         style="fill:#aea79f;stroke:#2c001e;stroke-width:0;stroke-miterlimit:4;stroke-dasharray:none;stroke-dashoffset:0"
         sodipodi:type="arc" />
      <path
         transform="matrix(0.11666667,0,0,0.11666667,124.37407,826.24616)"
         d="m -53.149605,24.803141 c 0,5.870743 -4.759178,10.629921 -10.629921,10.629921 -5.870743,0 -10.629921,-4.759178 -10.629921,-10.629921 0,-5.870744 4.759178,-10.629921 10.629921,-10.629921 5.870743,0 10.629921,4.759177 10.629921,10.629921 z"
         sodipodi:ry="10.629921"
         sodipodi:rx="10.629921"
         sodipodi:cy="24.803141"
         sodipodi:cx="-63.779526"
         id="path8238-6"
         style="fill:#aea79f;stroke:#2c001e;stroke-width:0;stroke-miterlimit:4;stroke-dasharray:none;stroke-dashoffset:0"
         sodipodi:type="arc" />
      <path
         transform="matrix(0.11666667,0,0,0.11666667,145.63391,826.24616)"
         d="m -53.149605,24.803141 c 0,5.870743 -4.759178,10.629921 -10.629921,10.629921 -5.870743,0 -10.629921,-4.759178 -10.629921,-10.629921 0,-5.870744 4.759178,-10.629921 10.629921,-10.629921 5.870743,0 10.629921,4.759177 10.629921,10.629921 z"
         sodipodi:ry="10.629921"
         sodipodi:rx="10.629921"
         sodipodi:cy="24.803141"
         sodipodi:cx="-63.779526"
         id="path8238-5"
         style="fill:#aea79f;stroke:#2c001e;stroke-width:0;stroke-miterlimit:4;stroke-dasharray:none;stroke-dashoffset:0"
         sodipodi:type="arc" />
      <path
         transform="matrix(0.11666667,0,0,0.11666667,166.89376,826.24616)"
         d="m -53.149605,24.803141 c 0,5.870743 -4.759178,10.629921 -10.629921,10.629921 -5.870743,0 -10.629921,-4.759178 -10.629921,-10.629921 0,-5.870744 4.759178,-10.629921 10.629921,-10.629921 5.870743,0 10.629921,4.759177 10.629921,10.629921 z"
         sodipodi:ry="10.629921"
         sodipodi:rx="10.629921"
         sodipodi:cy="24.803141"
         sodipodi:cx="-63.779526"
         id="path8238-2"
         style="fill:#aea79f;stroke:#2c001e;stroke-width:0;stroke-miterlimit:4;stroke-dasharray:none;stroke-dashoffset:0"
         sodipodi:type="arc" />
      <path
         transform="matrix(0.11666667,0,0,0.11666667,188.1536,826.24616)"
         d="m -53.149605,24.803141 c 0,5.870743 -4.759178,10.629921 -10.629921,10.629921 -5.870743,0 -10.629921,-4.759178 -10.629921,-10.629921 0,-5.870744 4.759178,-10.629921 10.629921,-10.629921 5.870743,0 10.629921,4.759177 10.629921,10.629921 z"
         sodipodi:ry="10.629921"
         sodipodi:rx="10.629921"
         sodipodi:cy="24.803141"
         sodipodi:cx="-63.779526"
         id="path8238-82"
         style="fill:#aea79f;stroke:#2c001e;stroke-width:0;stroke-miterlimit:4;stroke-dasharray:none;stroke-dashoffset:0"
         sodipodi:type="arc" />
      <path
         transform="matrix(0.11666667,0,0,0.11666667,209.41344,826.24616)"
         d="m -53.149605,24.803141 c 0,5.870743 -4.759178,10.629921 -10.629921,10.629921 -5.870743,0 -10.629921,-4.759178 -10.629921,-10.629921 0,-5.870744 4.759178,-10.629921 10.629921,-10.629921 5.870743,0 10.629921,4.759177 10.629921,10.629921 z"
         sodipodi:ry="10.629921"
         sodipodi:rx="10.629921"
         sodipodi:cy="24.803141"
         sodipodi:cx="-63.779526"
         id="path8238-3"
         style="fill:#aea79f;stroke:#2c001e;stroke-width:0;stroke-miterlimit:4;stroke-dasharray:none;stroke-dashoffset:0"
         sodipodi:type="arc" />
      <path
         transform="matrix(0.11666667,0,0,0.11666667,230.67328,826.24616)"
         d="m -53.149605,24.803141 c 0,5.870743 -4.759178,10.629921 -10.629921,10.629921 -5.870743,0 -10.629921,-4.759178 -10.629921,-10.629921 0,-5.870744 4.759178,-10.629921 10.629921,-10.629921 5.870743,0 10.629921,4.759177 10.629921,10.629921 z"
         sodipodi:ry="10.629921"
         sodipodi:rx="10.629921"
         sodipodi:cy="24.803141"
         sodipodi:cx="-63.779526"
         id="path8238-08"
         style="fill:#aea79f;stroke:#2c001e;stroke-width:0;stroke-miterlimit:4;stroke-dasharray:none;stroke-dashoffset:0"
         sodipodi:type="arc" />
    </g>
    <g
       id="g9165">
      <path
         transform="matrix(0.11666667,0,0,0.11666667,18.059075,847.50601)"
         d="m -53.149605,24.803141 c 0,5.870743 -4.759178,10.629921 -10.629921,10.629921 -5.870743,0 -10.629921,-4.759178 -10.629921,-10.629921 0,-5.870744 4.759178,-10.629921 10.629921,-10.629921 5.870743,0 10.629921,4.759177 10.629921,10.629921 z"
         sodipodi:ry="10.629921"
         sodipodi:rx="10.629921"
         sodipodi:cy="24.803141"
         sodipodi:cx="-63.779526"
         id="path8238-39"
         style="fill:#aea79f;stroke:#2c001e;stroke-width:0;stroke-miterlimit:4;stroke-dasharray:none;stroke-dashoffset:0"
         sodipodi:type="arc" />
      <path
         transform="matrix(0.11666667,0,0,0.11666667,39.334701,847.50601)"
         d="m -53.149605,24.803141 c 0,5.870743 -4.759178,10.629921 -10.629921,10.629921 -5.870743,0 -10.629921,-4.759178 -10.629921,-10.629921 0,-5.870744 4.759178,-10.629921 10.629921,-10.629921 5.870743,0 10.629921,4.759177 10.629921,10.629921 z"
         sodipodi:ry="10.629921"
         sodipodi:rx="10.629921"
         sodipodi:cy="24.803141"
         sodipodi:cx="-63.779526"
         id="path8238-9-6"
         style="fill:#aea79f;stroke:#2c001e;stroke-width:0;stroke-miterlimit:4;stroke-dasharray:none;stroke-dashoffset:0"
         sodipodi:type="arc" />
      <path
         transform="matrix(0.11666667,0,0,0.11666667,60.594544,847.50601)"
         d="m -53.149605,24.803141 c 0,5.870743 -4.759178,10.629921 -10.629921,10.629921 -5.870743,0 -10.629921,-4.759178 -10.629921,-10.629921 0,-5.870744 4.759178,-10.629921 10.629921,-10.629921 5.870743,0 10.629921,4.759177 10.629921,10.629921 z"
         sodipodi:ry="10.629921"
         sodipodi:rx="10.629921"
         sodipodi:cy="24.803141"
         sodipodi:cx="-63.779526"
         id="path8238-4-8"
         style="fill:#aea79f;stroke:#2c001e;stroke-width:0;stroke-miterlimit:4;stroke-dasharray:none;stroke-dashoffset:0"
         sodipodi:type="arc" />
      <path
         transform="matrix(0.11666667,0,0,0.11666667,81.854387,847.50601)"
         d="m -53.149605,24.803141 c 0,5.870743 -4.759178,10.629921 -10.629921,10.629921 -5.870743,0 -10.629921,-4.759178 -10.629921,-10.629921 0,-5.870744 4.759178,-10.629921 10.629921,-10.629921 5.870743,0 10.629921,4.759177 10.629921,10.629921 z"
         sodipodi:ry="10.629921"
         sodipodi:rx="10.629921"
         sodipodi:cy="24.803141"
         sodipodi:cx="-63.779526"
         id="path8238-0-2"
         style="fill:#aea79f;stroke:#2c001e;stroke-width:0;stroke-miterlimit:4;stroke-dasharray:none;stroke-dashoffset:0"
         sodipodi:type="arc" />
      <path
         transform="matrix(0.11666667,0,0,0.11666667,103.11423,847.50601)"
         d="m -53.149605,24.803141 c 0,5.870743 -4.759178,10.629921 -10.629921,10.629921 -5.870743,0 -10.629921,-4.759178 -10.629921,-10.629921 0,-5.870744 4.759178,-10.629921 10.629921,-10.629921 5.870743,0 10.629921,4.759177 10.629921,10.629921 z"
         sodipodi:ry="10.629921"
         sodipodi:rx="10.629921"
         sodipodi:cy="24.803141"
         sodipodi:cx="-63.779526"
         id="path8238-8-5"
         style="fill:#aea79f;stroke:#2c001e;stroke-width:0;stroke-miterlimit:4;stroke-dasharray:none;stroke-dashoffset:0"
         sodipodi:type="arc" />
      <path
         transform="matrix(0.11666667,0,0,0.11666667,124.37407,847.50601)"
         d="m -53.149605,24.803141 c 0,5.870743 -4.759178,10.629921 -10.629921,10.629921 -5.870743,0 -10.629921,-4.759178 -10.629921,-10.629921 0,-5.870744 4.759178,-10.629921 10.629921,-10.629921 5.870743,0 10.629921,4.759177 10.629921,10.629921 z"
         sodipodi:ry="10.629921"
         sodipodi:rx="10.629921"
         sodipodi:cy="24.803141"
         sodipodi:cx="-63.779526"
         id="path8238-6-2"
         style="fill:#aea79f;stroke:#2c001e;stroke-width:0;stroke-miterlimit:4;stroke-dasharray:none;stroke-dashoffset:0"
         sodipodi:type="arc" />
      <path
         transform="matrix(0.11666667,0,0,0.11666667,145.63391,847.50601)"
         d="m -53.149605,24.803141 c 0,5.870743 -4.759178,10.629921 -10.629921,10.629921 -5.870743,0 -10.629921,-4.759178 -10.629921,-10.629921 0,-5.870744 4.759178,-10.629921 10.629921,-10.629921 5.870743,0 10.629921,4.759177 10.629921,10.629921 z"
         sodipodi:ry="10.629921"
         sodipodi:rx="10.629921"
         sodipodi:cy="24.803141"
         sodipodi:cx="-63.779526"
         id="path8238-5-1"
         style="fill:#aea79f;stroke:#2c001e;stroke-width:0;stroke-miterlimit:4;stroke-dasharray:none;stroke-dashoffset:0"
         sodipodi:type="arc" />
      <path
         transform="matrix(0.11666667,0,0,0.11666667,166.89376,847.50601)"
         d="m -53.149605,24.803141 c 0,5.870743 -4.759178,10.629921 -10.629921,10.629921 -5.870743,0 -10.629921,-4.759178 -10.629921,-10.629921 0,-5.870744 4.759178,-10.629921 10.629921,-10.629921 5.870743,0 10.629921,4.759177 10.629921,10.629921 z"
         sodipodi:ry="10.629921"
         sodipodi:rx="10.629921"
         sodipodi:cy="24.803141"
         sodipodi:cx="-63.779526"
         id="path8238-2-1"
         style="fill:#aea79f;stroke:#2c001e;stroke-width:0;stroke-miterlimit:4;stroke-dasharray:none;stroke-dashoffset:0"
         sodipodi:type="arc" />
      <path
         transform="matrix(0.11666667,0,0,0.11666667,188.1536,847.50601)"
         d="m -53.149605,24.803141 c 0,5.870743 -4.759178,10.629921 -10.629921,10.629921 -5.870743,0 -10.629921,-4.759178 -10.629921,-10.629921 0,-5.870744 4.759178,-10.629921 10.629921,-10.629921 5.870743,0 10.629921,4.759177 10.629921,10.629921 z"
         sodipodi:ry="10.629921"
         sodipodi:rx="10.629921"
         sodipodi:cy="24.803141"
         sodipodi:cx="-63.779526"
         id="path8238-82-3"
         style="fill:#aea79f;stroke:#2c001e;stroke-width:0;stroke-miterlimit:4;stroke-dasharray:none;stroke-dashoffset:0"
         sodipodi:type="arc" />
      <path
         transform="matrix(0.11666667,0,0,0.11666667,209.41344,847.50601)"
         d="m -53.149605,24.803141 c 0,5.870743 -4.759178,10.629921 -10.629921,10.629921 -5.870743,0 -10.629921,-4.759178 -10.629921,-10.629921 0,-5.870744 4.759178,-10.629921 10.629921,-10.629921 5.870743,0 10.629921,4.759177 10.629921,10.629921 z"
         sodipodi:ry="10.629921"
         sodipodi:rx="10.629921"
         sodipodi:cy="24.803141"
         sodipodi:cx="-63.779526"
         id="path8238-3-0"
         style="fill:#aea79f;stroke:#2c001e;stroke-width:0;stroke-miterlimit:4;stroke-dasharray:none;stroke-dashoffset:0"
         sodipodi:type="arc" />
      <path
         transform="matrix(0.11666667,0,0,0.11666667,230.67328,847.50601)"
         d="m -53.149605,24.803141 c 0,5.870743 -4.759178,10.629921 -10.629921,10.629921 -5.870743,0 -10.629921,-4.759178 -10.629921,-10.629921 0,-5.870744 4.759178,-10.629921 10.629921,-10.629921 5.870743,0 10.629921,4.759177 10.629921,10.629921 z"
         sodipodi:ry="10.629921"
         sodipodi:rx="10.629921"
         sodipodi:cy="24.803141"
         sodipodi:cx="-63.779526"
         id="path8238-08-7"
         style="fill:#aea79f;stroke:#2c001e;stroke-width:0;stroke-miterlimit:4;stroke-dasharray:none;stroke-dashoffset:0"
         sodipodi:type="arc" />
    </g>
    <g
       id="g9178"
       transform="translate(-21.259846,0)">
      <path
         transform="matrix(0.11666667,0,0,0.11666667,39.318917,868.76585)"
         d="m -53.149605,24.803141 c 0,5.870743 -4.759178,10.629921 -10.629921,10.629921 -5.870743,0 -10.629921,-4.759178 -10.629921,-10.629921 0,-5.870744 4.759178,-10.629921 10.629921,-10.629921 5.870743,0 10.629921,4.759177 10.629921,10.629921 z"
         sodipodi:ry="10.629921"
         sodipodi:rx="10.629921"
         sodipodi:cy="24.803141"
         sodipodi:cx="-63.779526"
         id="path8238-84"
         style="fill:#aea79f;stroke:#2c001e;stroke-width:0;stroke-miterlimit:4;stroke-dasharray:none;stroke-dashoffset:0"
         sodipodi:type="arc" />
      <path
         transform="matrix(0.11666667,0,0,0.11666667,60.594543,868.76585)"
         d="m -53.149605,24.803141 c 0,5.870743 -4.759178,10.629921 -10.629921,10.629921 -5.870743,0 -10.629921,-4.759178 -10.629921,-10.629921 0,-5.870744 4.759178,-10.629921 10.629921,-10.629921 5.870743,0 10.629921,4.759177 10.629921,10.629921 z"
         sodipodi:ry="10.629921"
         sodipodi:rx="10.629921"
         sodipodi:cy="24.803141"
         sodipodi:cx="-63.779526"
         id="path8238-9-7"
         style="fill:#aea79f;stroke:#2c001e;stroke-width:0;stroke-miterlimit:4;stroke-dasharray:none;stroke-dashoffset:0"
         sodipodi:type="arc" />
      <path
         transform="matrix(0.11666667,0,0,0.11666667,81.854386,868.76585)"
         d="m -53.149605,24.803141 c 0,5.870743 -4.759178,10.629921 -10.629921,10.629921 -5.870743,0 -10.629921,-4.759178 -10.629921,-10.629921 0,-5.870744 4.759178,-10.629921 10.629921,-10.629921 5.870743,0 10.629921,4.759177 10.629921,10.629921 z"
         sodipodi:ry="10.629921"
         sodipodi:rx="10.629921"
         sodipodi:cy="24.803141"
         sodipodi:cx="-63.779526"
         id="path8238-4-3"
         style="fill:#aea79f;stroke:#2c001e;stroke-width:0;stroke-miterlimit:4;stroke-dasharray:none;stroke-dashoffset:0"
         sodipodi:type="arc" />
      <path
         transform="matrix(0.11666667,0,0,0.11666667,103.11423,868.76585)"
         d="m -53.149605,24.803141 c 0,5.870743 -4.759178,10.629921 -10.629921,10.629921 -5.870743,0 -10.629921,-4.759178 -10.629921,-10.629921 0,-5.870744 4.759178,-10.629921 10.629921,-10.629921 5.870743,0 10.629921,4.759177 10.629921,10.629921 z"
         sodipodi:ry="10.629921"
         sodipodi:rx="10.629921"
         sodipodi:cy="24.803141"
         sodipodi:cx="-63.779526"
         id="path8238-0-8"
         style="fill:#aea79f;stroke:#2c001e;stroke-width:0;stroke-miterlimit:4;stroke-dasharray:none;stroke-dashoffset:0"
         sodipodi:type="arc" />
      <path
         transform="matrix(0.11666667,0,0,0.11666667,124.37407,868.76585)"
         d="m -53.149605,24.803141 c 0,5.870743 -4.759178,10.629921 -10.629921,10.629921 -5.870743,0 -10.629921,-4.759178 -10.629921,-10.629921 0,-5.870744 4.759178,-10.629921 10.629921,-10.629921 5.870743,0 10.629921,4.759177 10.629921,10.629921 z"
         sodipodi:ry="10.629921"
         sodipodi:rx="10.629921"
         sodipodi:cy="24.803141"
         sodipodi:cx="-63.779526"
         id="path8238-8-9"
         style="fill:#aea79f;stroke:#2c001e;stroke-width:0;stroke-miterlimit:4;stroke-dasharray:none;stroke-dashoffset:0"
         sodipodi:type="arc" />
      <path
         transform="matrix(0.11666667,0,0,0.11666667,145.63392,868.76585)"
         d="m -53.149605,24.803141 c 0,5.870743 -4.759178,10.629921 -10.629921,10.629921 -5.870743,0 -10.629921,-4.759178 -10.629921,-10.629921 0,-5.870744 4.759178,-10.629921 10.629921,-10.629921 5.870743,0 10.629921,4.759177 10.629921,10.629921 z"
         sodipodi:ry="10.629921"
         sodipodi:rx="10.629921"
         sodipodi:cy="24.803141"
         sodipodi:cx="-63.779526"
         id="path8238-6-1"
         style="fill:#aea79f;stroke:#2c001e;stroke-width:0;stroke-miterlimit:4;stroke-dasharray:none;stroke-dashoffset:0"
         sodipodi:type="arc" />
      <path
         transform="matrix(0.11666667,0,0,0.11666667,166.89376,868.76585)"
         d="m -53.149605,24.803141 c 0,5.870743 -4.759178,10.629921 -10.629921,10.629921 -5.870743,0 -10.629921,-4.759178 -10.629921,-10.629921 0,-5.870744 4.759178,-10.629921 10.629921,-10.629921 5.870743,0 10.629921,4.759177 10.629921,10.629921 z"
         sodipodi:ry="10.629921"
         sodipodi:rx="10.629921"
         sodipodi:cy="24.803141"
         sodipodi:cx="-63.779526"
         id="path8238-5-6"
         style="fill:#aea79f;stroke:#2c001e;stroke-width:0;stroke-miterlimit:4;stroke-dasharray:none;stroke-dashoffset:0"
         sodipodi:type="arc" />
      <path
         transform="matrix(0.11666667,0,0,0.11666667,188.15361,868.76585)"
         d="m -53.149605,24.803141 c 0,5.870743 -4.759178,10.629921 -10.629921,10.629921 -5.870743,0 -10.629921,-4.759178 -10.629921,-10.629921 0,-5.870744 4.759178,-10.629921 10.629921,-10.629921 5.870743,0 10.629921,4.759177 10.629921,10.629921 z"
         sodipodi:ry="10.629921"
         sodipodi:rx="10.629921"
         sodipodi:cy="24.803141"
         sodipodi:cx="-63.779526"
         id="path8238-2-7"
         style="fill:#aea79f;stroke:#2c001e;stroke-width:0;stroke-miterlimit:4;stroke-dasharray:none;stroke-dashoffset:0"
         sodipodi:type="arc" />
      <path
         transform="matrix(0.11666667,0,0,0.11666667,209.41345,868.76585)"
         d="m -53.149605,24.803141 c 0,5.870743 -4.759178,10.629921 -10.629921,10.629921 -5.870743,0 -10.629921,-4.759178 -10.629921,-10.629921 0,-5.870744 4.759178,-10.629921 10.629921,-10.629921 5.870743,0 10.629921,4.759177 10.629921,10.629921 z"
         sodipodi:ry="10.629921"
         sodipodi:rx="10.629921"
         sodipodi:cy="24.803141"
         sodipodi:cx="-63.779526"
         id="path8238-82-8"
         style="fill:#aea79f;stroke:#2c001e;stroke-width:0;stroke-miterlimit:4;stroke-dasharray:none;stroke-dashoffset:0"
         sodipodi:type="arc" />
      <path
         transform="matrix(0.11666667,0,0,0.11666667,230.67329,868.76585)"
         d="m -53.149605,24.803141 c 0,5.870743 -4.759178,10.629921 -10.629921,10.629921 -5.870743,0 -10.629921,-4.759178 -10.629921,-10.629921 0,-5.870744 4.759178,-10.629921 10.629921,-10.629921 5.870743,0 10.629921,4.759177 10.629921,10.629921 z"
         sodipodi:ry="10.629921"
         sodipodi:rx="10.629921"
         sodipodi:cy="24.803141"
         sodipodi:cx="-63.779526"
         id="path8238-3-1"
         style="fill:#aea79f;stroke:#2c001e;stroke-width:0;stroke-miterlimit:4;stroke-dasharray:none;stroke-dashoffset:0"
         sodipodi:type="arc" />
      <path
         transform="matrix(0.11666667,0,0,0.11666667,251.93313,868.76585)"
         d="m -53.149605,24.803141 c 0,5.870743 -4.759178,10.629921 -10.629921,10.629921 -5.870743,0 -10.629921,-4.759178 -10.629921,-10.629921 0,-5.870744 4.759178,-10.629921 10.629921,-10.629921 5.870743,0 10.629921,4.759177 10.629921,10.629921 z"
         sodipodi:ry="10.629921"
         sodipodi:rx="10.629921"
         sodipodi:cy="24.803141"
         sodipodi:cx="-63.779526"
         id="path8238-08-8"
         style="fill:#aea79f;stroke:#2c001e;stroke-width:0;stroke-miterlimit:4;stroke-dasharray:none;stroke-dashoffset:0"
         sodipodi:type="arc" />
    </g>
    <g
       id="g9204"
       transform="translate(-21.259846,0)">
      <path
         transform="matrix(0.11666667,0,0,0.11666667,39.318917,890.02569)"
         d="m -53.149605,24.803141 c 0,5.870743 -4.759178,10.629921 -10.629921,10.629921 -5.870743,0 -10.629921,-4.759178 -10.629921,-10.629921 0,-5.870744 4.759178,-10.629921 10.629921,-10.629921 5.870743,0 10.629921,4.759177 10.629921,10.629921 z"
         sodipodi:ry="10.629921"
         sodipodi:rx="10.629921"
         sodipodi:cy="24.803141"
         sodipodi:cx="-63.779526"
         id="path8238-1"
         style="fill:#aea79f;stroke:#2c001e;stroke-width:0;stroke-miterlimit:4;stroke-dasharray:none;stroke-dashoffset:0"
         sodipodi:type="arc" />
      <path
         transform="matrix(0.11666667,0,0,0.11666667,60.594543,890.02569)"
         d="m -53.149605,24.803141 c 0,5.870743 -4.759178,10.629921 -10.629921,10.629921 -5.870743,0 -10.629921,-4.759178 -10.629921,-10.629921 0,-5.870744 4.759178,-10.629921 10.629921,-10.629921 5.870743,0 10.629921,4.759177 10.629921,10.629921 z"
         sodipodi:ry="10.629921"
         sodipodi:rx="10.629921"
         sodipodi:cy="24.803141"
         sodipodi:cx="-63.779526"
         id="path8238-9-5"
         style="fill:#aea79f;stroke:#2c001e;stroke-width:0;stroke-miterlimit:4;stroke-dasharray:none;stroke-dashoffset:0"
         sodipodi:type="arc" />
      <path
         transform="matrix(0.11666667,0,0,0.11666667,81.854386,890.02569)"
         d="m -53.149605,24.803141 c 0,5.870743 -4.759178,10.629921 -10.629921,10.629921 -5.870743,0 -10.629921,-4.759178 -10.629921,-10.629921 0,-5.870744 4.759178,-10.629921 10.629921,-10.629921 5.870743,0 10.629921,4.759177 10.629921,10.629921 z"
         sodipodi:ry="10.629921"
         sodipodi:rx="10.629921"
         sodipodi:cy="24.803141"
         sodipodi:cx="-63.779526"
         id="path8238-4-9"
         style="fill:#aea79f;stroke:#2c001e;stroke-width:0;stroke-miterlimit:4;stroke-dasharray:none;stroke-dashoffset:0"
         sodipodi:type="arc" />
      <path
         transform="matrix(0.11666667,0,0,0.11666667,103.11423,890.02569)"
         d="m -53.149605,24.803141 c 0,5.870743 -4.759178,10.629921 -10.629921,10.629921 -5.870743,0 -10.629921,-4.759178 -10.629921,-10.629921 0,-5.870744 4.759178,-10.629921 10.629921,-10.629921 5.870743,0 10.629921,4.759177 10.629921,10.629921 z"
         sodipodi:ry="10.629921"
         sodipodi:rx="10.629921"
         sodipodi:cy="24.803141"
         sodipodi:cx="-63.779526"
         id="path8238-0-4"
         style="fill:#aea79f;stroke:#2c001e;stroke-width:0;stroke-miterlimit:4;stroke-dasharray:none;stroke-dashoffset:0"
         sodipodi:type="arc" />
      <path
         transform="matrix(0.11666667,0,0,0.11666667,124.37407,890.02569)"
         d="m -53.149605,24.803141 c 0,5.870743 -4.759178,10.629921 -10.629921,10.629921 -5.870743,0 -10.629921,-4.759178 -10.629921,-10.629921 0,-5.870744 4.759178,-10.629921 10.629921,-10.629921 5.870743,0 10.629921,4.759177 10.629921,10.629921 z"
         sodipodi:ry="10.629921"
         sodipodi:rx="10.629921"
         sodipodi:cy="24.803141"
         sodipodi:cx="-63.779526"
         id="path8238-8-1"
         style="fill:#aea79f;stroke:#2c001e;stroke-width:0;stroke-miterlimit:4;stroke-dasharray:none;stroke-dashoffset:0"
         sodipodi:type="arc" />
      <path
         transform="matrix(0.11666667,0,0,0.11666667,145.63392,890.02569)"
         d="m -53.149605,24.803141 c 0,5.870743 -4.759178,10.629921 -10.629921,10.629921 -5.870743,0 -10.629921,-4.759178 -10.629921,-10.629921 0,-5.870744 4.759178,-10.629921 10.629921,-10.629921 5.870743,0 10.629921,4.759177 10.629921,10.629921 z"
         sodipodi:ry="10.629921"
         sodipodi:rx="10.629921"
         sodipodi:cy="24.803141"
         sodipodi:cx="-63.779526"
         id="path8238-6-0"
         style="fill:#aea79f;stroke:#2c001e;stroke-width:0;stroke-miterlimit:4;stroke-dasharray:none;stroke-dashoffset:0"
         sodipodi:type="arc" />
      <path
         transform="matrix(0.11666667,0,0,0.11666667,166.89376,890.02569)"
         d="m -53.149605,24.803141 c 0,5.870743 -4.759178,10.629921 -10.629921,10.629921 -5.870743,0 -10.629921,-4.759178 -10.629921,-10.629921 0,-5.870744 4.759178,-10.629921 10.629921,-10.629921 5.870743,0 10.629921,4.759177 10.629921,10.629921 z"
         sodipodi:ry="10.629921"
         sodipodi:rx="10.629921"
         sodipodi:cy="24.803141"
         sodipodi:cx="-63.779526"
         id="path8238-5-8"
         style="fill:#aea79f;stroke:#2c001e;stroke-width:0;stroke-miterlimit:4;stroke-dasharray:none;stroke-dashoffset:0"
         sodipodi:type="arc" />
      <path
         transform="matrix(0.11666667,0,0,0.11666667,188.15361,890.02569)"
         d="m -53.149605,24.803141 c 0,5.870743 -4.759178,10.629921 -10.629921,10.629921 -5.870743,0 -10.629921,-4.759178 -10.629921,-10.629921 0,-5.870744 4.759178,-10.629921 10.629921,-10.629921 5.870743,0 10.629921,4.759177 10.629921,10.629921 z"
         sodipodi:ry="10.629921"
         sodipodi:rx="10.629921"
         sodipodi:cy="24.803141"
         sodipodi:cx="-63.779526"
         id="path8238-2-4"
         style="fill:#aea79f;stroke:#2c001e;stroke-width:0;stroke-miterlimit:4;stroke-dasharray:none;stroke-dashoffset:0"
         sodipodi:type="arc" />
      <path
         transform="matrix(0.11666667,0,0,0.11666667,209.41345,890.02569)"
         d="m -53.149605,24.803141 c 0,5.870743 -4.759178,10.629921 -10.629921,10.629921 -5.870743,0 -10.629921,-4.759178 -10.629921,-10.629921 0,-5.870744 4.759178,-10.629921 10.629921,-10.629921 5.870743,0 10.629921,4.759177 10.629921,10.629921 z"
         sodipodi:ry="10.629921"
         sodipodi:rx="10.629921"
         sodipodi:cy="24.803141"
         sodipodi:cx="-63.779526"
         id="path8238-82-9"
         style="fill:#aea79f;stroke:#2c001e;stroke-width:0;stroke-miterlimit:4;stroke-dasharray:none;stroke-dashoffset:0"
         sodipodi:type="arc" />
      <path
         transform="matrix(0.11666667,0,0,0.11666667,230.67329,890.02569)"
         d="m -53.149605,24.803141 c 0,5.870743 -4.759178,10.629921 -10.629921,10.629921 -5.870743,0 -10.629921,-4.759178 -10.629921,-10.629921 0,-5.870744 4.759178,-10.629921 10.629921,-10.629921 5.870743,0 10.629921,4.759177 10.629921,10.629921 z"
         sodipodi:ry="10.629921"
         sodipodi:rx="10.629921"
         sodipodi:cy="24.803141"
         sodipodi:cx="-63.779526"
         id="path8238-3-4"
         style="fill:#aea79f;stroke:#2c001e;stroke-width:0;stroke-miterlimit:4;stroke-dasharray:none;stroke-dashoffset:0"
         sodipodi:type="arc" />
      <path
         transform="matrix(0.11666667,0,0,0.11666667,251.93313,890.02569)"
         d="m -53.149605,24.803141 c 0,5.870743 -4.759178,10.629921 -10.629921,10.629921 -5.870743,0 -10.629921,-4.759178 -10.629921,-10.629921 0,-5.870744 4.759178,-10.629921 10.629921,-10.629921 5.870743,0 10.629921,4.759177 10.629921,10.629921 z"
         sodipodi:ry="10.629921"
         sodipodi:rx="10.629921"
         sodipodi:cy="24.803141"
         sodipodi:cx="-63.779526"
         id="path8238-08-2"
         style="fill:#aea79f;stroke:#2c001e;stroke-width:0;stroke-miterlimit:4;stroke-dasharray:none;stroke-dashoffset:0"
         sodipodi:type="arc" />
    </g>
    <g
       id="g9217">
      <path
         transform="matrix(0.11666667,0,0,0.11666667,18.059075,911.28553)"
         d="m -53.149605,24.803141 c 0,5.870743 -4.759178,10.629921 -10.629921,10.629921 -5.870743,0 -10.629921,-4.759178 -10.629921,-10.629921 0,-5.870744 4.759178,-10.629921 10.629921,-10.629921 5.870743,0 10.629921,4.759177 10.629921,10.629921 z"
         sodipodi:ry="10.629921"
         sodipodi:rx="10.629921"
         sodipodi:cy="24.803141"
         sodipodi:cx="-63.779526"
         id="path8238-22"
         style="fill:#aea79f;stroke:#2c001e;stroke-width:0;stroke-miterlimit:4;stroke-dasharray:none;stroke-dashoffset:0"
         sodipodi:type="arc" />
      <path
         transform="matrix(0.11666667,0,0,0.11666667,39.334701,911.28553)"
         d="m -53.149605,24.803141 c 0,5.870743 -4.759178,10.629921 -10.629921,10.629921 -5.870743,0 -10.629921,-4.759178 -10.629921,-10.629921 0,-5.870744 4.759178,-10.629921 10.629921,-10.629921 5.870743,0 10.629921,4.759177 10.629921,10.629921 z"
         sodipodi:ry="10.629921"
         sodipodi:rx="10.629921"
         sodipodi:cy="24.803141"
         sodipodi:cx="-63.779526"
         id="path8238-9-73"
         style="fill:#aea79f;stroke:#2c001e;stroke-width:0;stroke-miterlimit:4;stroke-dasharray:none;stroke-dashoffset:0"
         sodipodi:type="arc" />
      <path
         transform="matrix(0.11666667,0,0,0.11666667,60.594544,911.28553)"
         d="m -53.149605,24.803141 c 0,5.870743 -4.759178,10.629921 -10.629921,10.629921 -5.870743,0 -10.629921,-4.759178 -10.629921,-10.629921 0,-5.870744 4.759178,-10.629921 10.629921,-10.629921 5.870743,0 10.629921,4.759177 10.629921,10.629921 z"
         sodipodi:ry="10.629921"
         sodipodi:rx="10.629921"
         sodipodi:cy="24.803141"
         sodipodi:cx="-63.779526"
         id="path8238-4-30"
         style="fill:#aea79f;stroke:#2c001e;stroke-width:0;stroke-miterlimit:4;stroke-dasharray:none;stroke-dashoffset:0"
         sodipodi:type="arc" />
      <path
         transform="matrix(0.11666667,0,0,0.11666667,81.854387,911.28553)"
         d="m -53.149605,24.803141 c 0,5.870743 -4.759178,10.629921 -10.629921,10.629921 -5.870743,0 -10.629921,-4.759178 -10.629921,-10.629921 0,-5.870744 4.759178,-10.629921 10.629921,-10.629921 5.870743,0 10.629921,4.759177 10.629921,10.629921 z"
         sodipodi:ry="10.629921"
         sodipodi:rx="10.629921"
         sodipodi:cy="24.803141"
         sodipodi:cx="-63.779526"
         id="path8238-0-5"
         style="fill:#aea79f;stroke:#2c001e;stroke-width:0;stroke-miterlimit:4;stroke-dasharray:none;stroke-dashoffset:0"
         sodipodi:type="arc" />
      <path
         transform="matrix(0.11666667,0,0,0.11666667,103.11423,911.28553)"
         d="m -53.149605,24.803141 c 0,5.870743 -4.759178,10.629921 -10.629921,10.629921 -5.870743,0 -10.629921,-4.759178 -10.629921,-10.629921 0,-5.870744 4.759178,-10.629921 10.629921,-10.629921 5.870743,0 10.629921,4.759177 10.629921,10.629921 z"
         sodipodi:ry="10.629921"
         sodipodi:rx="10.629921"
         sodipodi:cy="24.803141"
         sodipodi:cx="-63.779526"
         id="path8238-8-3"
         style="fill:#aea79f;stroke:#2c001e;stroke-width:0;stroke-miterlimit:4;stroke-dasharray:none;stroke-dashoffset:0"
         sodipodi:type="arc" />
      <path
         transform="matrix(0.11666667,0,0,0.11666667,124.37407,911.28553)"
         d="m -53.149605,24.803141 c 0,5.870743 -4.759178,10.629921 -10.629921,10.629921 -5.870743,0 -10.629921,-4.759178 -10.629921,-10.629921 0,-5.870744 4.759178,-10.629921 10.629921,-10.629921 5.870743,0 10.629921,4.759177 10.629921,10.629921 z"
         sodipodi:ry="10.629921"
         sodipodi:rx="10.629921"
         sodipodi:cy="24.803141"
         sodipodi:cx="-63.779526"
         id="path8238-6-00"
         style="fill:#aea79f;stroke:#2c001e;stroke-width:0;stroke-miterlimit:4;stroke-dasharray:none;stroke-dashoffset:0"
         sodipodi:type="arc" />
      <path
         transform="matrix(0.11666667,0,0,0.11666667,145.63391,911.28553)"
         d="m -53.149605,24.803141 c 0,5.870743 -4.759178,10.629921 -10.629921,10.629921 -5.870743,0 -10.629921,-4.759178 -10.629921,-10.629921 0,-5.870744 4.759178,-10.629921 10.629921,-10.629921 5.870743,0 10.629921,4.759177 10.629921,10.629921 z"
         sodipodi:ry="10.629921"
         sodipodi:rx="10.629921"
         sodipodi:cy="24.803141"
         sodipodi:cx="-63.779526"
         id="path8238-5-0"
         style="fill:#aea79f;stroke:#2c001e;stroke-width:0;stroke-miterlimit:4;stroke-dasharray:none;stroke-dashoffset:0"
         sodipodi:type="arc" />
      <path
         transform="matrix(0.11666667,0,0,0.11666667,166.89376,911.28553)"
         d="m -53.149605,24.803141 c 0,5.870743 -4.759178,10.629921 -10.629921,10.629921 -5.870743,0 -10.629921,-4.759178 -10.629921,-10.629921 0,-5.870744 4.759178,-10.629921 10.629921,-10.629921 5.870743,0 10.629921,4.759177 10.629921,10.629921 z"
         sodipodi:ry="10.629921"
         sodipodi:rx="10.629921"
         sodipodi:cy="24.803141"
         sodipodi:cx="-63.779526"
         id="path8238-2-3"
         style="fill:#aea79f;stroke:#2c001e;stroke-width:0;stroke-miterlimit:4;stroke-dasharray:none;stroke-dashoffset:0"
         sodipodi:type="arc" />
      <path
         transform="matrix(0.11666667,0,0,0.11666667,188.1536,911.28553)"
         d="m -53.149605,24.803141 c 0,5.870743 -4.759178,10.629921 -10.629921,10.629921 -5.870743,0 -10.629921,-4.759178 -10.629921,-10.629921 0,-5.870744 4.759178,-10.629921 10.629921,-10.629921 5.870743,0 10.629921,4.759177 10.629921,10.629921 z"
         sodipodi:ry="10.629921"
         sodipodi:rx="10.629921"
         sodipodi:cy="24.803141"
         sodipodi:cx="-63.779526"
         id="path8238-82-80"
         style="fill:#aea79f;stroke:#2c001e;stroke-width:0;stroke-miterlimit:4;stroke-dasharray:none;stroke-dashoffset:0"
         sodipodi:type="arc" />
      <path
         transform="matrix(0.11666667,0,0,0.11666667,209.41344,911.28553)"
         d="m -53.149605,24.803141 c 0,5.870743 -4.759178,10.629921 -10.629921,10.629921 -5.870743,0 -10.629921,-4.759178 -10.629921,-10.629921 0,-5.870744 4.759178,-10.629921 10.629921,-10.629921 5.870743,0 10.629921,4.759177 10.629921,10.629921 z"
         sodipodi:ry="10.629921"
         sodipodi:rx="10.629921"
         sodipodi:cy="24.803141"
         sodipodi:cx="-63.779526"
         id="path8238-3-7"
         style="fill:#aea79f;stroke:#2c001e;stroke-width:0;stroke-miterlimit:4;stroke-dasharray:none;stroke-dashoffset:0"
         sodipodi:type="arc" />
      <path
         transform="matrix(0.11666667,0,0,0.11666667,230.67328,911.28553)"
         d="m -53.149605,24.803141 c 0,5.870743 -4.759178,10.629921 -10.629921,10.629921 -5.870743,0 -10.629921,-4.759178 -10.629921,-10.629921 0,-5.870744 4.759178,-10.629921 10.629921,-10.629921 5.870743,0 10.629921,4.759177 10.629921,10.629921 z"
         sodipodi:ry="10.629921"
         sodipodi:rx="10.629921"
         sodipodi:cy="24.803141"
         sodipodi:cx="-63.779526"
         id="path8238-08-6"
         style="fill:#aea79f;stroke:#2c001e;stroke-width:0;stroke-miterlimit:4;stroke-dasharray:none;stroke-dashoffset:0"
         sodipodi:type="arc" />
      <path
         transform="matrix(0.11666667,0,0,0.11666667,18.059075,932.54538)"
         d="m -53.149605,24.803141 c 0,5.870743 -4.759178,10.629921 -10.629921,10.629921 -5.870743,0 -10.629921,-4.759178 -10.629921,-10.629921 0,-5.870744 4.759178,-10.629921 10.629921,-10.629921 5.870743,0 10.629921,4.759177 10.629921,10.629921 z"
         sodipodi:ry="10.629921"
         sodipodi:rx="10.629921"
         sodipodi:cy="24.803141"
         sodipodi:cx="-63.779526"
         id="path8238-97"
         style="fill:#aea79f;stroke:#2c001e;stroke-width:0;stroke-miterlimit:4;stroke-dasharray:none;stroke-dashoffset:0"
         sodipodi:type="arc" />
      <path
         transform="matrix(0.11666667,0,0,0.11666667,39.334701,932.54538)"
         d="m -53.149605,24.803141 c 0,5.870743 -4.759178,10.629921 -10.629921,10.629921 -5.870743,0 -10.629921,-4.759178 -10.629921,-10.629921 0,-5.870744 4.759178,-10.629921 10.629921,-10.629921 5.870743,0 10.629921,4.759177 10.629921,10.629921 z"
         sodipodi:ry="10.629921"
         sodipodi:rx="10.629921"
         sodipodi:cy="24.803141"
         sodipodi:cx="-63.779526"
         id="path8238-9-77"
         style="fill:#aea79f;stroke:#2c001e;stroke-width:0;stroke-miterlimit:4;stroke-dasharray:none;stroke-dashoffset:0"
         sodipodi:type="arc" />
      <path
         transform="matrix(0.11666667,0,0,0.11666667,60.594544,932.54538)"
         d="m -53.149605,24.803141 c 0,5.870743 -4.759178,10.629921 -10.629921,10.629921 -5.870743,0 -10.629921,-4.759178 -10.629921,-10.629921 0,-5.870744 4.759178,-10.629921 10.629921,-10.629921 5.870743,0 10.629921,4.759177 10.629921,10.629921 z"
         sodipodi:ry="10.629921"
         sodipodi:rx="10.629921"
         sodipodi:cy="24.803141"
         sodipodi:cx="-63.779526"
         id="path8238-4-82"
         style="fill:#aea79f;stroke:#2c001e;stroke-width:0;stroke-miterlimit:4;stroke-dasharray:none;stroke-dashoffset:0"
         sodipodi:type="arc" />
      <path
         transform="matrix(0.11666667,0,0,0.11666667,81.854387,932.54538)"
         d="m -53.149605,24.803141 c 0,5.870743 -4.759178,10.629921 -10.629921,10.629921 -5.870743,0 -10.629921,-4.759178 -10.629921,-10.629921 0,-5.870744 4.759178,-10.629921 10.629921,-10.629921 5.870743,0 10.629921,4.759177 10.629921,10.629921 z"
         sodipodi:ry="10.629921"
         sodipodi:rx="10.629921"
         sodipodi:cy="24.803141"
         sodipodi:cx="-63.779526"
         id="path8238-0-6"
         style="fill:#aea79f;stroke:#2c001e;stroke-width:0;stroke-miterlimit:4;stroke-dasharray:none;stroke-dashoffset:0"
         sodipodi:type="arc" />
      <path
         transform="matrix(0.11666667,0,0,0.11666667,103.11423,932.54538)"
         d="m -53.149605,24.803141 c 0,5.870743 -4.759178,10.629921 -10.629921,10.629921 -5.870743,0 -10.629921,-4.759178 -10.629921,-10.629921 0,-5.870744 4.759178,-10.629921 10.629921,-10.629921 5.870743,0 10.629921,4.759177 10.629921,10.629921 z"
         sodipodi:ry="10.629921"
         sodipodi:rx="10.629921"
         sodipodi:cy="24.803141"
         sodipodi:cx="-63.779526"
         id="path8238-8-55"
         style="fill:#aea79f;stroke:#2c001e;stroke-width:0;stroke-miterlimit:4;stroke-dasharray:none;stroke-dashoffset:0"
         sodipodi:type="arc" />
      <path
         transform="matrix(0.11666667,0,0,0.11666667,124.37407,932.54538)"
         d="m -53.149605,24.803141 c 0,5.870743 -4.759178,10.629921 -10.629921,10.629921 -5.870743,0 -10.629921,-4.759178 -10.629921,-10.629921 0,-5.870744 4.759178,-10.629921 10.629921,-10.629921 5.870743,0 10.629921,4.759177 10.629921,10.629921 z"
         sodipodi:ry="10.629921"
         sodipodi:rx="10.629921"
         sodipodi:cy="24.803141"
         sodipodi:cx="-63.779526"
         id="path8238-6-8"
         style="fill:#aea79f;stroke:#2c001e;stroke-width:0;stroke-miterlimit:4;stroke-dasharray:none;stroke-dashoffset:0"
         sodipodi:type="arc" />
      <path
         transform="matrix(0.11666667,0,0,0.11666667,145.63391,932.54538)"
         d="m -53.149605,24.803141 c 0,5.870743 -4.759178,10.629921 -10.629921,10.629921 -5.870743,0 -10.629921,-4.759178 -10.629921,-10.629921 0,-5.870744 4.759178,-10.629921 10.629921,-10.629921 5.870743,0 10.629921,4.759177 10.629921,10.629921 z"
         sodipodi:ry="10.629921"
         sodipodi:rx="10.629921"
         sodipodi:cy="24.803141"
         sodipodi:cx="-63.779526"
         id="path8238-5-5"
         style="fill:#aea79f;stroke:#2c001e;stroke-width:0;stroke-miterlimit:4;stroke-dasharray:none;stroke-dashoffset:0"
         sodipodi:type="arc" />
      <path
         transform="matrix(0.11666667,0,0,0.11666667,166.89376,932.54538)"
         d="m -53.149605,24.803141 c 0,5.870743 -4.759178,10.629921 -10.629921,10.629921 -5.870743,0 -10.629921,-4.759178 -10.629921,-10.629921 0,-5.870744 4.759178,-10.629921 10.629921,-10.629921 5.870743,0 10.629921,4.759177 10.629921,10.629921 z"
         sodipodi:ry="10.629921"
         sodipodi:rx="10.629921"
         sodipodi:cy="24.803141"
         sodipodi:cx="-63.779526"
         id="path8238-2-9"
         style="fill:#aea79f;stroke:#2c001e;stroke-width:0;stroke-miterlimit:4;stroke-dasharray:none;stroke-dashoffset:0"
         sodipodi:type="arc" />
      <path
         transform="matrix(0.11666667,0,0,0.11666667,188.1536,932.54538)"
         d="m -53.149605,24.803141 c 0,5.870743 -4.759178,10.629921 -10.629921,10.629921 -5.870743,0 -10.629921,-4.759178 -10.629921,-10.629921 0,-5.870744 4.759178,-10.629921 10.629921,-10.629921 5.870743,0 10.629921,4.759177 10.629921,10.629921 z"
         sodipodi:ry="10.629921"
         sodipodi:rx="10.629921"
         sodipodi:cy="24.803141"
         sodipodi:cx="-63.779526"
         id="path8238-82-7"
         style="fill:#aea79f;stroke:#2c001e;stroke-width:0;stroke-miterlimit:4;stroke-dasharray:none;stroke-dashoffset:0"
         sodipodi:type="arc" />
      <path
         transform="matrix(0.11666667,0,0,0.11666667,209.41344,932.54538)"
         d="m -53.149605,24.803141 c 0,5.870743 -4.759178,10.629921 -10.629921,10.629921 -5.870743,0 -10.629921,-4.759178 -10.629921,-10.629921 0,-5.870744 4.759178,-10.629921 10.629921,-10.629921 5.870743,0 10.629921,4.759177 10.629921,10.629921 z"
         sodipodi:ry="10.629921"
         sodipodi:rx="10.629921"
         sodipodi:cy="24.803141"
         sodipodi:cx="-63.779526"
         id="path8238-3-03"
         style="fill:#aea79f;stroke:#2c001e;stroke-width:0;stroke-miterlimit:4;stroke-dasharray:none;stroke-dashoffset:0"
         sodipodi:type="arc" />
      <path
         transform="matrix(0.11666667,0,0,0.11666667,230.67328,932.54538)"
         d="m -53.149605,24.803141 c 0,5.870743 -4.759178,10.629921 -10.629921,10.629921 -5.870743,0 -10.629921,-4.759178 -10.629921,-10.629921 0,-5.870744 4.759178,-10.629921 10.629921,-10.629921 5.870743,0 10.629921,4.759177 10.629921,10.629921 z"
         sodipodi:ry="10.629921"
         sodipodi:rx="10.629921"
         sodipodi:cy="24.803141"
         sodipodi:cx="-63.779526"
         id="path8238-08-1"
         style="fill:#aea79f;stroke:#2c001e;stroke-width:0;stroke-miterlimit:4;stroke-dasharray:none;stroke-dashoffset:0"
         sodipodi:type="arc" />
      <path
         transform="matrix(0.11666667,0,0,0.11666667,18.059075,953.80522)"
         d="m -53.149605,24.803141 c 0,5.870743 -4.759178,10.629921 -10.629921,10.629921 -5.870743,0 -10.629921,-4.759178 -10.629921,-10.629921 0,-5.870744 4.759178,-10.629921 10.629921,-10.629921 5.870743,0 10.629921,4.759177 10.629921,10.629921 z"
         sodipodi:ry="10.629921"
         sodipodi:rx="10.629921"
         sodipodi:cy="24.803141"
         sodipodi:cx="-63.779526"
         id="path8238-40"
         style="fill:#aea79f;stroke:#2c001e;stroke-width:0;stroke-miterlimit:4;stroke-dasharray:none;stroke-dashoffset:0"
         sodipodi:type="arc" />
      <path
         transform="matrix(0.11666667,0,0,0.11666667,39.334701,953.80522)"
         d="m -53.149605,24.803141 c 0,5.870743 -4.759178,10.629921 -10.629921,10.629921 -5.870743,0 -10.629921,-4.759178 -10.629921,-10.629921 0,-5.870744 4.759178,-10.629921 10.629921,-10.629921 5.870743,0 10.629921,4.759177 10.629921,10.629921 z"
         sodipodi:ry="10.629921"
         sodipodi:rx="10.629921"
         sodipodi:cy="24.803141"
         sodipodi:cx="-63.779526"
         id="path8238-9-772"
         style="fill:#aea79f;stroke:#2c001e;stroke-width:0;stroke-miterlimit:4;stroke-dasharray:none;stroke-dashoffset:0"
         sodipodi:type="arc" />
      <path
         transform="matrix(0.11666667,0,0,0.11666667,60.594544,953.80522)"
         d="m -53.149605,24.803141 c 0,5.870743 -4.759178,10.629921 -10.629921,10.629921 -5.870743,0 -10.629921,-4.759178 -10.629921,-10.629921 0,-5.870744 4.759178,-10.629921 10.629921,-10.629921 5.870743,0 10.629921,4.759177 10.629921,10.629921 z"
         sodipodi:ry="10.629921"
         sodipodi:rx="10.629921"
         sodipodi:cy="24.803141"
         sodipodi:cx="-63.779526"
         id="path8238-4-2"
         style="fill:#aea79f;stroke:#2c001e;stroke-width:0;stroke-miterlimit:4;stroke-dasharray:none;stroke-dashoffset:0"
         sodipodi:type="arc" />
      <path
         transform="matrix(0.11666667,0,0,0.11666667,81.854387,953.80522)"
         d="m -53.149605,24.803141 c 0,5.870743 -4.759178,10.629921 -10.629921,10.629921 -5.870743,0 -10.629921,-4.759178 -10.629921,-10.629921 0,-5.870744 4.759178,-10.629921 10.629921,-10.629921 5.870743,0 10.629921,4.759177 10.629921,10.629921 z"
         sodipodi:ry="10.629921"
         sodipodi:rx="10.629921"
         sodipodi:cy="24.803141"
         sodipodi:cx="-63.779526"
         id="path8238-0-23"
         style="fill:#aea79f;stroke:#2c001e;stroke-width:0;stroke-miterlimit:4;stroke-dasharray:none;stroke-dashoffset:0"
         sodipodi:type="arc" />
      <path
         transform="matrix(0.11666667,0,0,0.11666667,103.11423,953.80522)"
         d="m -53.149605,24.803141 c 0,5.870743 -4.759178,10.629921 -10.629921,10.629921 -5.870743,0 -10.629921,-4.759178 -10.629921,-10.629921 0,-5.870744 4.759178,-10.629921 10.629921,-10.629921 5.870743,0 10.629921,4.759177 10.629921,10.629921 z"
         sodipodi:ry="10.629921"
         sodipodi:rx="10.629921"
         sodipodi:cy="24.803141"
         sodipodi:cx="-63.779526"
         id="path8238-8-4"
         style="fill:#aea79f;stroke:#2c001e;stroke-width:0;stroke-miterlimit:4;stroke-dasharray:none;stroke-dashoffset:0"
         sodipodi:type="arc" />
      <path
         transform="matrix(0.11666667,0,0,0.11666667,124.37407,953.80522)"
         d="m -53.149605,24.803141 c 0,5.870743 -4.759178,10.629921 -10.629921,10.629921 -5.870743,0 -10.629921,-4.759178 -10.629921,-10.629921 0,-5.870744 4.759178,-10.629921 10.629921,-10.629921 5.870743,0 10.629921,4.759177 10.629921,10.629921 z"
         sodipodi:ry="10.629921"
         sodipodi:rx="10.629921"
         sodipodi:cy="24.803141"
         sodipodi:cx="-63.779526"
         id="path8238-6-5"
         style="fill:#aea79f;stroke:#2c001e;stroke-width:0;stroke-miterlimit:4;stroke-dasharray:none;stroke-dashoffset:0"
         sodipodi:type="arc" />
      <path
         transform="matrix(0.11666667,0,0,0.11666667,145.63391,953.80522)"
         d="m -53.149605,24.803141 c 0,5.870743 -4.759178,10.629921 -10.629921,10.629921 -5.870743,0 -10.629921,-4.759178 -10.629921,-10.629921 0,-5.870744 4.759178,-10.629921 10.629921,-10.629921 5.870743,0 10.629921,4.759177 10.629921,10.629921 z"
         sodipodi:ry="10.629921"
         sodipodi:rx="10.629921"
         sodipodi:cy="24.803141"
         sodipodi:cx="-63.779526"
         id="path8238-5-82"
         style="fill:#aea79f;stroke:#2c001e;stroke-width:0;stroke-miterlimit:4;stroke-dasharray:none;stroke-dashoffset:0"
         sodipodi:type="arc" />
      <path
         transform="matrix(0.11666667,0,0,0.11666667,166.89376,953.80522)"
         d="m -53.149605,24.803141 c 0,5.870743 -4.759178,10.629921 -10.629921,10.629921 -5.870743,0 -10.629921,-4.759178 -10.629921,-10.629921 0,-5.870744 4.759178,-10.629921 10.629921,-10.629921 5.870743,0 10.629921,4.759177 10.629921,10.629921 z"
         sodipodi:ry="10.629921"
         sodipodi:rx="10.629921"
         sodipodi:cy="24.803141"
         sodipodi:cx="-63.779526"
         id="path8238-2-77"
         style="fill:#aea79f;stroke:#2c001e;stroke-width:0;stroke-miterlimit:4;stroke-dasharray:none;stroke-dashoffset:0"
         sodipodi:type="arc" />
      <path
         transform="matrix(0.11666667,0,0,0.11666667,188.1536,953.80522)"
         d="m -53.149605,24.803141 c 0,5.870743 -4.759178,10.629921 -10.629921,10.629921 -5.870743,0 -10.629921,-4.759178 -10.629921,-10.629921 0,-5.870744 4.759178,-10.629921 10.629921,-10.629921 5.870743,0 10.629921,4.759177 10.629921,10.629921 z"
         sodipodi:ry="10.629921"
         sodipodi:rx="10.629921"
         sodipodi:cy="24.803141"
         sodipodi:cx="-63.779526"
         id="path8238-82-86"
         style="fill:#aea79f;stroke:#2c001e;stroke-width:0;stroke-miterlimit:4;stroke-dasharray:none;stroke-dashoffset:0"
         sodipodi:type="arc" />
      <path
         transform="matrix(0.11666667,0,0,0.11666667,209.41344,953.80522)"
         d="m -53.149605,24.803141 c 0,5.870743 -4.759178,10.629921 -10.629921,10.629921 -5.870743,0 -10.629921,-4.759178 -10.629921,-10.629921 0,-5.870744 4.759178,-10.629921 10.629921,-10.629921 5.870743,0 10.629921,4.759177 10.629921,10.629921 z"
         sodipodi:ry="10.629921"
         sodipodi:rx="10.629921"
         sodipodi:cy="24.803141"
         sodipodi:cx="-63.779526"
         id="path8238-3-47"
         style="fill:#aea79f;stroke:#2c001e;stroke-width:0;stroke-miterlimit:4;stroke-dasharray:none;stroke-dashoffset:0"
         sodipodi:type="arc" />
      <path
         transform="matrix(0.11666667,0,0,0.11666667,230.67328,953.80522)"
         d="m -53.149605,24.803141 c 0,5.870743 -4.759178,10.629921 -10.629921,10.629921 -5.870743,0 -10.629921,-4.759178 -10.629921,-10.629921 0,-5.870744 4.759178,-10.629921 10.629921,-10.629921 5.870743,0 10.629921,4.759177 10.629921,10.629921 z"
         sodipodi:ry="10.629921"
         sodipodi:rx="10.629921"
         sodipodi:cy="24.803141"
         sodipodi:cx="-63.779526"
         id="path8238-08-5"
         style="fill:#aea79f;stroke:#2c001e;stroke-width:0;stroke-miterlimit:4;stroke-dasharray:none;stroke-dashoffset:0"
         sodipodi:type="arc" />
      <path
         transform="matrix(0.11666667,0,0,0.11666667,18.059075,975.06506)"
         d="m -53.149605,24.803141 c 0,5.870743 -4.759178,10.629921 -10.629921,10.629921 -5.870743,0 -10.629921,-4.759178 -10.629921,-10.629921 0,-5.870744 4.759178,-10.629921 10.629921,-10.629921 5.870743,0 10.629921,4.759177 10.629921,10.629921 z"
         sodipodi:ry="10.629921"
         sodipodi:rx="10.629921"
         sodipodi:cy="24.803141"
         sodipodi:cx="-63.779526"
         id="path8238-51"
         style="fill:#aea79f;stroke:#2c001e;stroke-width:0;stroke-miterlimit:4;stroke-dasharray:none;stroke-dashoffset:0"
         sodipodi:type="arc" />
      <path
         transform="matrix(0.11666667,0,0,0.11666667,39.334701,975.06506)"
         d="m -53.149605,24.803141 c 0,5.870743 -4.759178,10.629921 -10.629921,10.629921 -5.870743,0 -10.629921,-4.759178 -10.629921,-10.629921 0,-5.870744 4.759178,-10.629921 10.629921,-10.629921 5.870743,0 10.629921,4.759177 10.629921,10.629921 z"
         sodipodi:ry="10.629921"
         sodipodi:rx="10.629921"
         sodipodi:cy="24.803141"
         sodipodi:cx="-63.779526"
         id="path8238-9-3"
         style="fill:#aea79f;stroke:#2c001e;stroke-width:0;stroke-miterlimit:4;stroke-dasharray:none;stroke-dashoffset:0"
         sodipodi:type="arc" />
      <path
         transform="matrix(0.11666667,0,0,0.11666667,60.594544,975.06506)"
         d="m -53.149605,24.803141 c 0,5.870743 -4.759178,10.629921 -10.629921,10.629921 -5.870743,0 -10.629921,-4.759178 -10.629921,-10.629921 0,-5.870744 4.759178,-10.629921 10.629921,-10.629921 5.870743,0 10.629921,4.759177 10.629921,10.629921 z"
         sodipodi:ry="10.629921"
         sodipodi:rx="10.629921"
         sodipodi:cy="24.803141"
         sodipodi:cx="-63.779526"
         id="path8238-4-26"
         style="fill:#aea79f;stroke:#2c001e;stroke-width:0;stroke-miterlimit:4;stroke-dasharray:none;stroke-dashoffset:0"
         sodipodi:type="arc" />
      <path
         transform="matrix(0.11666667,0,0,0.11666667,81.854387,975.06506)"
         d="m -53.149605,24.803141 c 0,5.870743 -4.759178,10.629921 -10.629921,10.629921 -5.870743,0 -10.629921,-4.759178 -10.629921,-10.629921 0,-5.870744 4.759178,-10.629921 10.629921,-10.629921 5.870743,0 10.629921,4.759177 10.629921,10.629921 z"
         sodipodi:ry="10.629921"
         sodipodi:rx="10.629921"
         sodipodi:cy="24.803141"
         sodipodi:cx="-63.779526"
         id="path8238-0-1"
         style="fill:#aea79f;stroke:#2c001e;stroke-width:0;stroke-miterlimit:4;stroke-dasharray:none;stroke-dashoffset:0"
         sodipodi:type="arc" />
      <path
         transform="matrix(0.11666667,0,0,0.11666667,103.11423,975.06506)"
         d="m -53.149605,24.803141 c 0,5.870743 -4.759178,10.629921 -10.629921,10.629921 -5.870743,0 -10.629921,-4.759178 -10.629921,-10.629921 0,-5.870744 4.759178,-10.629921 10.629921,-10.629921 5.870743,0 10.629921,4.759177 10.629921,10.629921 z"
         sodipodi:ry="10.629921"
         sodipodi:rx="10.629921"
         sodipodi:cy="24.803141"
         sodipodi:cx="-63.779526"
         id="path8238-8-7"
         style="fill:#aea79f;stroke:#2c001e;stroke-width:0;stroke-miterlimit:4;stroke-dasharray:none;stroke-dashoffset:0"
         sodipodi:type="arc" />
      <path
         transform="matrix(0.11666667,0,0,0.11666667,124.37407,975.06506)"
         d="m -53.149605,24.803141 c 0,5.870743 -4.759178,10.629921 -10.629921,10.629921 -5.870743,0 -10.629921,-4.759178 -10.629921,-10.629921 0,-5.870744 4.759178,-10.629921 10.629921,-10.629921 5.870743,0 10.629921,4.759177 10.629921,10.629921 z"
         sodipodi:ry="10.629921"
         sodipodi:rx="10.629921"
         sodipodi:cy="24.803141"
         sodipodi:cx="-63.779526"
         id="path8238-6-7"
         style="fill:#aea79f;stroke:#2c001e;stroke-width:0;stroke-miterlimit:4;stroke-dasharray:none;stroke-dashoffset:0"
         sodipodi:type="arc" />
      <path
         transform="matrix(0.11666667,0,0,0.11666667,145.63391,975.06506)"
         d="m -53.149605,24.803141 c 0,5.870743 -4.759178,10.629921 -10.629921,10.629921 -5.870743,0 -10.629921,-4.759178 -10.629921,-10.629921 0,-5.870744 4.759178,-10.629921 10.629921,-10.629921 5.870743,0 10.629921,4.759177 10.629921,10.629921 z"
         sodipodi:ry="10.629921"
         sodipodi:rx="10.629921"
         sodipodi:cy="24.803141"
         sodipodi:cx="-63.779526"
         id="path8238-5-07"
         style="fill:#aea79f;stroke:#2c001e;stroke-width:0;stroke-miterlimit:4;stroke-dasharray:none;stroke-dashoffset:0"
         sodipodi:type="arc" />
      <path
         transform="matrix(0.11666667,0,0,0.11666667,166.89376,975.06506)"
         d="m -53.149605,24.803141 c 0,5.870743 -4.759178,10.629921 -10.629921,10.629921 -5.870743,0 -10.629921,-4.759178 -10.629921,-10.629921 0,-5.870744 4.759178,-10.629921 10.629921,-10.629921 5.870743,0 10.629921,4.759177 10.629921,10.629921 z"
         sodipodi:ry="10.629921"
         sodipodi:rx="10.629921"
         sodipodi:cy="24.803141"
         sodipodi:cx="-63.779526"
         id="path8238-2-34"
         style="fill:#aea79f;stroke:#2c001e;stroke-width:0;stroke-miterlimit:4;stroke-dasharray:none;stroke-dashoffset:0"
         sodipodi:type="arc" />
      <path
         transform="matrix(0.11666667,0,0,0.11666667,188.1536,975.06506)"
         d="m -53.149605,24.803141 c 0,5.870743 -4.759178,10.629921 -10.629921,10.629921 -5.870743,0 -10.629921,-4.759178 -10.629921,-10.629921 0,-5.870744 4.759178,-10.629921 10.629921,-10.629921 5.870743,0 10.629921,4.759177 10.629921,10.629921 z"
         sodipodi:ry="10.629921"
         sodipodi:rx="10.629921"
         sodipodi:cy="24.803141"
         sodipodi:cx="-63.779526"
         id="path8238-82-35"
         style="fill:#aea79f;stroke:#2c001e;stroke-width:0;stroke-miterlimit:4;stroke-dasharray:none;stroke-dashoffset:0"
         sodipodi:type="arc" />
      <path
         transform="matrix(0.11666667,0,0,0.11666667,209.41344,975.06506)"
         d="m -53.149605,24.803141 c 0,5.870743 -4.759178,10.629921 -10.629921,10.629921 -5.870743,0 -10.629921,-4.759178 -10.629921,-10.629921 0,-5.870744 4.759178,-10.629921 10.629921,-10.629921 5.870743,0 10.629921,4.759177 10.629921,10.629921 z"
         sodipodi:ry="10.629921"
         sodipodi:rx="10.629921"
         sodipodi:cy="24.803141"
         sodipodi:cx="-63.779526"
         id="path8238-3-11"
         style="fill:#aea79f;stroke:#2c001e;stroke-width:0;stroke-miterlimit:4;stroke-dasharray:none;stroke-dashoffset:0"
         sodipodi:type="arc" />
      <path
         transform="matrix(0.11666667,0,0,0.11666667,230.67328,975.06506)"
         d="m -53.149605,24.803141 c 0,5.870743 -4.759178,10.629921 -10.629921,10.629921 -5.870743,0 -10.629921,-4.759178 -10.629921,-10.629921 0,-5.870744 4.759178,-10.629921 10.629921,-10.629921 5.870743,0 10.629921,4.759177 10.629921,10.629921 z"
         sodipodi:ry="10.629921"
         sodipodi:rx="10.629921"
         sodipodi:cy="24.803141"
         sodipodi:cx="-63.779526"
         id="path8238-08-85"
         style="fill:#aea79f;stroke:#2c001e;stroke-width:0;stroke-miterlimit:4;stroke-dasharray:none;stroke-dashoffset:0"
         sodipodi:type="arc" />
      <path
         transform="matrix(0.11666667,0,0,0.11666667,18.059075,996.3249)"
         d="m -53.149605,24.803141 c 0,5.870743 -4.759178,10.629921 -10.629921,10.629921 -5.870743,0 -10.629921,-4.759178 -10.629921,-10.629921 0,-5.870744 4.759178,-10.629921 10.629921,-10.629921 5.870743,0 10.629921,4.759177 10.629921,10.629921 z"
         sodipodi:ry="10.629921"
         sodipodi:rx="10.629921"
         sodipodi:cy="24.803141"
         sodipodi:cx="-63.779526"
         id="path8238-53"
         style="fill:#aea79f;stroke:#2c001e;stroke-width:0;stroke-miterlimit:4;stroke-dasharray:none;stroke-dashoffset:0"
         sodipodi:type="arc" />
      <path
         transform="matrix(0.11666667,0,0,0.11666667,39.334701,996.3249)"
         d="m -53.149605,24.803141 c 0,5.870743 -4.759178,10.629921 -10.629921,10.629921 -5.870743,0 -10.629921,-4.759178 -10.629921,-10.629921 0,-5.870744 4.759178,-10.629921 10.629921,-10.629921 5.870743,0 10.629921,4.759177 10.629921,10.629921 z"
         sodipodi:ry="10.629921"
         sodipodi:rx="10.629921"
         sodipodi:cy="24.803141"
         sodipodi:cx="-63.779526"
         id="path8238-9-0"
         style="fill:#aea79f;stroke:#2c001e;stroke-width:0;stroke-miterlimit:4;stroke-dasharray:none;stroke-dashoffset:0"
         sodipodi:type="arc" />
      <path
         transform="matrix(0.11666667,0,0,0.11666667,60.594544,996.3249)"
         d="m -53.149605,24.803141 c 0,5.870743 -4.759178,10.629921 -10.629921,10.629921 -5.870743,0 -10.629921,-4.759178 -10.629921,-10.629921 0,-5.870744 4.759178,-10.629921 10.629921,-10.629921 5.870743,0 10.629921,4.759177 10.629921,10.629921 z"
         sodipodi:ry="10.629921"
         sodipodi:rx="10.629921"
         sodipodi:cy="24.803141"
         sodipodi:cx="-63.779526"
         id="path8238-4-0"
         style="fill:#aea79f;stroke:#2c001e;stroke-width:0;stroke-miterlimit:4;stroke-dasharray:none;stroke-dashoffset:0"
         sodipodi:type="arc" />
      <path
         transform="matrix(0.11666667,0,0,0.11666667,81.854387,996.3249)"
         d="m -53.149605,24.803141 c 0,5.870743 -4.759178,10.629921 -10.629921,10.629921 -5.870743,0 -10.629921,-4.759178 -10.629921,-10.629921 0,-5.870744 4.759178,-10.629921 10.629921,-10.629921 5.870743,0 10.629921,4.759177 10.629921,10.629921 z"
         sodipodi:ry="10.629921"
         sodipodi:rx="10.629921"
         sodipodi:cy="24.803141"
         sodipodi:cx="-63.779526"
         id="path8238-0-3"
         style="fill:#aea79f;stroke:#2c001e;stroke-width:0;stroke-miterlimit:4;stroke-dasharray:none;stroke-dashoffset:0"
         sodipodi:type="arc" />
      <path
         transform="matrix(0.11666667,0,0,0.11666667,103.11423,996.3249)"
         d="m -53.149605,24.803141 c 0,5.870743 -4.759178,10.629921 -10.629921,10.629921 -5.870743,0 -10.629921,-4.759178 -10.629921,-10.629921 0,-5.870744 4.759178,-10.629921 10.629921,-10.629921 5.870743,0 10.629921,4.759177 10.629921,10.629921 z"
         sodipodi:ry="10.629921"
         sodipodi:rx="10.629921"
         sodipodi:cy="24.803141"
         sodipodi:cx="-63.779526"
         id="path8238-8-2"
         style="fill:#aea79f;stroke:#2c001e;stroke-width:0;stroke-miterlimit:4;stroke-dasharray:none;stroke-dashoffset:0"
         sodipodi:type="arc" />
      <path
         transform="matrix(0.11666667,0,0,0.11666667,124.37407,996.3249)"
         d="m -53.149605,24.803141 c 0,5.870743 -4.759178,10.629921 -10.629921,10.629921 -5.870743,0 -10.629921,-4.759178 -10.629921,-10.629921 0,-5.870744 4.759178,-10.629921 10.629921,-10.629921 5.870743,0 10.629921,4.759177 10.629921,10.629921 z"
         sodipodi:ry="10.629921"
         sodipodi:rx="10.629921"
         sodipodi:cy="24.803141"
         sodipodi:cx="-63.779526"
         id="path8238-6-71"
         style="fill:#aea79f;stroke:#2c001e;stroke-width:0;stroke-miterlimit:4;stroke-dasharray:none;stroke-dashoffset:0"
         sodipodi:type="arc" />
      <path
         transform="matrix(0.11666667,0,0,0.11666667,145.63391,996.3249)"
         d="m -53.149605,24.803141 c 0,5.870743 -4.759178,10.629921 -10.629921,10.629921 -5.870743,0 -10.629921,-4.759178 -10.629921,-10.629921 0,-5.870744 4.759178,-10.629921 10.629921,-10.629921 5.870743,0 10.629921,4.759177 10.629921,10.629921 z"
         sodipodi:ry="10.629921"
         sodipodi:rx="10.629921"
         sodipodi:cy="24.803141"
         sodipodi:cx="-63.779526"
         id="path8238-5-3"
         style="fill:#aea79f;stroke:#2c001e;stroke-width:0;stroke-miterlimit:4;stroke-dasharray:none;stroke-dashoffset:0"
         sodipodi:type="arc" />
      <path
         transform="matrix(0.11666667,0,0,0.11666667,166.89376,996.3249)"
         d="m -53.149605,24.803141 c 0,5.870743 -4.759178,10.629921 -10.629921,10.629921 -5.870743,0 -10.629921,-4.759178 -10.629921,-10.629921 0,-5.870744 4.759178,-10.629921 10.629921,-10.629921 5.870743,0 10.629921,4.759177 10.629921,10.629921 z"
         sodipodi:ry="10.629921"
         sodipodi:rx="10.629921"
         sodipodi:cy="24.803141"
         sodipodi:cx="-63.779526"
         id="path8238-2-5"
         style="fill:#aea79f;stroke:#2c001e;stroke-width:0;stroke-miterlimit:4;stroke-dasharray:none;stroke-dashoffset:0"
         sodipodi:type="arc" />
      <path
         transform="matrix(0.11666667,0,0,0.11666667,188.1536,996.3249)"
         d="m -53.149605,24.803141 c 0,5.870743 -4.759178,10.629921 -10.629921,10.629921 -5.870743,0 -10.629921,-4.759178 -10.629921,-10.629921 0,-5.870744 4.759178,-10.629921 10.629921,-10.629921 5.870743,0 10.629921,4.759177 10.629921,10.629921 z"
         sodipodi:ry="10.629921"
         sodipodi:rx="10.629921"
         sodipodi:cy="24.803141"
         sodipodi:cx="-63.779526"
         id="path8238-82-70"
         style="fill:#aea79f;stroke:#2c001e;stroke-width:0;stroke-miterlimit:4;stroke-dasharray:none;stroke-dashoffset:0"
         sodipodi:type="arc" />
      <path
         transform="matrix(0.11666667,0,0,0.11666667,209.41344,996.3249)"
         d="m -53.149605,24.803141 c 0,5.870743 -4.759178,10.629921 -10.629921,10.629921 -5.870743,0 -10.629921,-4.759178 -10.629921,-10.629921 0,-5.870744 4.759178,-10.629921 10.629921,-10.629921 5.870743,0 10.629921,4.759177 10.629921,10.629921 z"
         sodipodi:ry="10.629921"
         sodipodi:rx="10.629921"
         sodipodi:cy="24.803141"
         sodipodi:cx="-63.779526"
         id="path8238-3-02"
         style="fill:#aea79f;stroke:#2c001e;stroke-width:0;stroke-miterlimit:4;stroke-dasharray:none;stroke-dashoffset:0"
         sodipodi:type="arc" />
      <path
         transform="matrix(0.11666667,0,0,0.11666667,230.67328,996.3249)"
         d="m -53.149605,24.803141 c 0,5.870743 -4.759178,10.629921 -10.629921,10.629921 -5.870743,0 -10.629921,-4.759178 -10.629921,-10.629921 0,-5.870744 4.759178,-10.629921 10.629921,-10.629921 5.870743,0 10.629921,4.759177 10.629921,10.629921 z"
         sodipodi:ry="10.629921"
         sodipodi:rx="10.629921"
         sodipodi:cy="24.803141"
         sodipodi:cx="-63.779526"
         id="path8238-08-23"
         style="fill:#aea79f;stroke:#2c001e;stroke-width:0;stroke-miterlimit:4;stroke-dasharray:none;stroke-dashoffset:0"
         sodipodi:type="arc" />
      <path
         transform="matrix(0.11666667,0,0,0.11666667,18.059075,1017.5847)"
         d="m -53.149605,24.803141 c 0,5.870743 -4.759178,10.629921 -10.629921,10.629921 -5.870743,0 -10.629921,-4.759178 -10.629921,-10.629921 0,-5.870744 4.759178,-10.629921 10.629921,-10.629921 5.870743,0 10.629921,4.759177 10.629921,10.629921 z"
         sodipodi:ry="10.629921"
         sodipodi:rx="10.629921"
         sodipodi:cy="24.803141"
         sodipodi:cx="-63.779526"
         id="path8238-406"
         style="fill:#aea79f;stroke:#2c001e;stroke-width:0;stroke-miterlimit:4;stroke-dasharray:none;stroke-dashoffset:0"
         sodipodi:type="arc" />
      <path
         transform="matrix(0.11666667,0,0,0.11666667,39.334701,1017.5847)"
         d="m -53.149605,24.803141 c 0,5.870743 -4.759178,10.629921 -10.629921,10.629921 -5.870743,0 -10.629921,-4.759178 -10.629921,-10.629921 0,-5.870744 4.759178,-10.629921 10.629921,-10.629921 5.870743,0 10.629921,4.759177 10.629921,10.629921 z"
         sodipodi:ry="10.629921"
         sodipodi:rx="10.629921"
         sodipodi:cy="24.803141"
         sodipodi:cx="-63.779526"
         id="path8238-9-2"
         style="fill:#aea79f;stroke:#2c001e;stroke-width:0;stroke-miterlimit:4;stroke-dasharray:none;stroke-dashoffset:0"
         sodipodi:type="arc" />
      <path
         transform="matrix(0.11666667,0,0,0.11666667,60.594544,1017.5847)"
         d="m -53.149605,24.803141 c 0,5.870743 -4.759178,10.629921 -10.629921,10.629921 -5.870743,0 -10.629921,-4.759178 -10.629921,-10.629921 0,-5.870744 4.759178,-10.629921 10.629921,-10.629921 5.870743,0 10.629921,4.759177 10.629921,10.629921 z"
         sodipodi:ry="10.629921"
         sodipodi:rx="10.629921"
         sodipodi:cy="24.803141"
         sodipodi:cx="-63.779526"
         id="path8238-4-07"
         style="fill:#aea79f;stroke:#2c001e;stroke-width:0;stroke-miterlimit:4;stroke-dasharray:none;stroke-dashoffset:0"
         sodipodi:type="arc" />
      <path
         transform="matrix(0.11666667,0,0,0.11666667,81.854387,1017.5847)"
         d="m -53.149605,24.803141 c 0,5.870743 -4.759178,10.629921 -10.629921,10.629921 -5.870743,0 -10.629921,-4.759178 -10.629921,-10.629921 0,-5.870744 4.759178,-10.629921 10.629921,-10.629921 5.870743,0 10.629921,4.759177 10.629921,10.629921 z"
         sodipodi:ry="10.629921"
         sodipodi:rx="10.629921"
         sodipodi:cy="24.803141"
         sodipodi:cx="-63.779526"
         id="path8238-0-13"
         style="fill:#aea79f;stroke:#2c001e;stroke-width:0;stroke-miterlimit:4;stroke-dasharray:none;stroke-dashoffset:0"
         sodipodi:type="arc" />
      <path
         transform="matrix(0.11666667,0,0,0.11666667,103.11423,1017.5847)"
         d="m -53.149605,24.803141 c 0,5.870743 -4.759178,10.629921 -10.629921,10.629921 -5.870743,0 -10.629921,-4.759178 -10.629921,-10.629921 0,-5.870744 4.759178,-10.629921 10.629921,-10.629921 5.870743,0 10.629921,4.759177 10.629921,10.629921 z"
         sodipodi:ry="10.629921"
         sodipodi:rx="10.629921"
         sodipodi:cy="24.803141"
         sodipodi:cx="-63.779526"
         id="path8238-8-15"
         style="fill:#aea79f;stroke:#2c001e;stroke-width:0;stroke-miterlimit:4;stroke-dasharray:none;stroke-dashoffset:0"
         sodipodi:type="arc" />
      <path
         transform="matrix(0.11666667,0,0,0.11666667,124.37407,1017.5847)"
         d="m -53.149605,24.803141 c 0,5.870743 -4.759178,10.629921 -10.629921,10.629921 -5.870743,0 -10.629921,-4.759178 -10.629921,-10.629921 0,-5.870744 4.759178,-10.629921 10.629921,-10.629921 5.870743,0 10.629921,4.759177 10.629921,10.629921 z"
         sodipodi:ry="10.629921"
         sodipodi:rx="10.629921"
         sodipodi:cy="24.803141"
         sodipodi:cx="-63.779526"
         id="path8238-6-84"
         style="fill:#aea79f;stroke:#2c001e;stroke-width:0;stroke-miterlimit:4;stroke-dasharray:none;stroke-dashoffset:0"
         sodipodi:type="arc" />
      <path
         transform="matrix(0.11666667,0,0,0.11666667,145.63391,1017.5847)"
         d="m -53.149605,24.803141 c 0,5.870743 -4.759178,10.629921 -10.629921,10.629921 -5.870743,0 -10.629921,-4.759178 -10.629921,-10.629921 0,-5.870744 4.759178,-10.629921 10.629921,-10.629921 5.870743,0 10.629921,4.759177 10.629921,10.629921 z"
         sodipodi:ry="10.629921"
         sodipodi:rx="10.629921"
         sodipodi:cy="24.803141"
         sodipodi:cx="-63.779526"
         id="path8238-5-88"
         style="fill:#aea79f;stroke:#2c001e;stroke-width:0;stroke-miterlimit:4;stroke-dasharray:none;stroke-dashoffset:0"
         sodipodi:type="arc" />
      <path
         transform="matrix(0.11666667,0,0,0.11666667,166.89376,1017.5847)"
         d="m -53.149605,24.803141 c 0,5.870743 -4.759178,10.629921 -10.629921,10.629921 -5.870743,0 -10.629921,-4.759178 -10.629921,-10.629921 0,-5.870744 4.759178,-10.629921 10.629921,-10.629921 5.870743,0 10.629921,4.759177 10.629921,10.629921 z"
         sodipodi:ry="10.629921"
         sodipodi:rx="10.629921"
         sodipodi:cy="24.803141"
         sodipodi:cx="-63.779526"
         id="path8238-2-13"
         style="fill:#aea79f;stroke:#2c001e;stroke-width:0;stroke-miterlimit:4;stroke-dasharray:none;stroke-dashoffset:0"
         sodipodi:type="arc" />
      <path
         transform="matrix(0.11666667,0,0,0.11666667,188.1536,1017.5847)"
         d="m -53.149605,24.803141 c 0,5.870743 -4.759178,10.629921 -10.629921,10.629921 -5.870743,0 -10.629921,-4.759178 -10.629921,-10.629921 0,-5.870744 4.759178,-10.629921 10.629921,-10.629921 5.870743,0 10.629921,4.759177 10.629921,10.629921 z"
         sodipodi:ry="10.629921"
         sodipodi:rx="10.629921"
         sodipodi:cy="24.803141"
         sodipodi:cx="-63.779526"
         id="path8238-82-1"
         style="fill:#aea79f;stroke:#2c001e;stroke-width:0;stroke-miterlimit:4;stroke-dasharray:none;stroke-dashoffset:0"
         sodipodi:type="arc" />
      <path
         transform="matrix(0.11666667,0,0,0.11666667,209.41344,1017.5847)"
         d="m -53.149605,24.803141 c 0,5.870743 -4.759178,10.629921 -10.629921,10.629921 -5.870743,0 -10.629921,-4.759178 -10.629921,-10.629921 0,-5.870744 4.759178,-10.629921 10.629921,-10.629921 5.870743,0 10.629921,4.759177 10.629921,10.629921 z"
         sodipodi:ry="10.629921"
         sodipodi:rx="10.629921"
         sodipodi:cy="24.803141"
         sodipodi:cx="-63.779526"
         id="path8238-3-16"
         style="fill:#aea79f;stroke:#2c001e;stroke-width:0;stroke-miterlimit:4;stroke-dasharray:none;stroke-dashoffset:0"
         sodipodi:type="arc" />
      <path
         transform="matrix(0.11666667,0,0,0.11666667,230.67328,1017.5847)"
         d="m -53.149605,24.803141 c 0,5.870743 -4.759178,10.629921 -10.629921,10.629921 -5.870743,0 -10.629921,-4.759178 -10.629921,-10.629921 0,-5.870744 4.759178,-10.629921 10.629921,-10.629921 5.870743,0 10.629921,4.759177 10.629921,10.629921 z"
         sodipodi:ry="10.629921"
         sodipodi:rx="10.629921"
         sodipodi:cy="24.803141"
         sodipodi:cx="-63.779526"
         id="path8238-08-76"
         style="fill:#aea79f;stroke:#2c001e;stroke-width:0;stroke-miterlimit:4;stroke-dasharray:none;stroke-dashoffset:0"
         sodipodi:type="arc" />
    </g>
    <g
       id="g9285"
       transform="translate(-21.259846,0)">
      <path
         transform="matrix(0.11666667,0,0,0.11666667,39.318917,1038.8446)"
         d="m -53.149605,24.803141 c 0,5.870743 -4.759178,10.629921 -10.629921,10.629921 -5.870743,0 -10.629921,-4.759178 -10.629921,-10.629921 0,-5.870744 4.759178,-10.629921 10.629921,-10.629921 5.870743,0 10.629921,4.759177 10.629921,10.629921 z"
         sodipodi:ry="10.629921"
         sodipodi:rx="10.629921"
         sodipodi:cy="24.803141"
         sodipodi:cx="-63.779526"
         id="path8238-38"
         style="fill:#aea79f;stroke:#2c001e;stroke-width:0;stroke-miterlimit:4;stroke-dasharray:none;stroke-dashoffset:0"
         sodipodi:type="arc" />
      <path
         transform="matrix(0.11666667,0,0,0.11666667,60.594543,1038.8446)"
         d="m -53.149605,24.803141 c 0,5.870743 -4.759178,10.629921 -10.629921,10.629921 -5.870743,0 -10.629921,-4.759178 -10.629921,-10.629921 0,-5.870744 4.759178,-10.629921 10.629921,-10.629921 5.870743,0 10.629921,4.759177 10.629921,10.629921 z"
         sodipodi:ry="10.629921"
         sodipodi:rx="10.629921"
         sodipodi:cy="24.803141"
         sodipodi:cx="-63.779526"
         id="path8238-9-1"
         style="fill:#aea79f;stroke:#2c001e;stroke-width:0;stroke-miterlimit:4;stroke-dasharray:none;stroke-dashoffset:0"
         sodipodi:type="arc" />
      <path
         transform="matrix(0.11666667,0,0,0.11666667,81.854386,1038.8446)"
         d="m -53.149605,24.803141 c 0,5.870743 -4.759178,10.629921 -10.629921,10.629921 -5.870743,0 -10.629921,-4.759178 -10.629921,-10.629921 0,-5.870744 4.759178,-10.629921 10.629921,-10.629921 5.870743,0 10.629921,4.759177 10.629921,10.629921 z"
         sodipodi:ry="10.629921"
         sodipodi:rx="10.629921"
         sodipodi:cy="24.803141"
         sodipodi:cx="-63.779526"
         id="path8238-4-95"
         style="fill:#aea79f;stroke:#2c001e;stroke-width:0;stroke-miterlimit:4;stroke-dasharray:none;stroke-dashoffset:0"
         sodipodi:type="arc" />
      <path
         transform="matrix(0.11666667,0,0,0.11666667,103.11423,1038.8446)"
         d="m -53.149605,24.803141 c 0,5.870743 -4.759178,10.629921 -10.629921,10.629921 -5.870743,0 -10.629921,-4.759178 -10.629921,-10.629921 0,-5.870744 4.759178,-10.629921 10.629921,-10.629921 5.870743,0 10.629921,4.759177 10.629921,10.629921 z"
         sodipodi:ry="10.629921"
         sodipodi:rx="10.629921"
         sodipodi:cy="24.803141"
         sodipodi:cx="-63.779526"
         id="path8238-0-11"
         style="fill:#aea79f;stroke:#2c001e;stroke-width:0;stroke-miterlimit:4;stroke-dasharray:none;stroke-dashoffset:0"
         sodipodi:type="arc" />
      <path
         transform="matrix(0.11666667,0,0,0.11666667,124.37407,1038.8446)"
         d="m -53.149605,24.803141 c 0,5.870743 -4.759178,10.629921 -10.629921,10.629921 -5.870743,0 -10.629921,-4.759178 -10.629921,-10.629921 0,-5.870744 4.759178,-10.629921 10.629921,-10.629921 5.870743,0 10.629921,4.759177 10.629921,10.629921 z"
         sodipodi:ry="10.629921"
         sodipodi:rx="10.629921"
         sodipodi:cy="24.803141"
         sodipodi:cx="-63.779526"
         id="path8238-8-0"
         style="fill:#aea79f;stroke:#2c001e;stroke-width:0;stroke-miterlimit:4;stroke-dasharray:none;stroke-dashoffset:0"
         sodipodi:type="arc" />
      <path
         transform="matrix(0.11666667,0,0,0.11666667,145.63392,1038.8446)"
         d="m -53.149605,24.803141 c 0,5.870743 -4.759178,10.629921 -10.629921,10.629921 -5.870743,0 -10.629921,-4.759178 -10.629921,-10.629921 0,-5.870744 4.759178,-10.629921 10.629921,-10.629921 5.870743,0 10.629921,4.759177 10.629921,10.629921 z"
         sodipodi:ry="10.629921"
         sodipodi:rx="10.629921"
         sodipodi:cy="24.803141"
         sodipodi:cx="-63.779526"
         id="path8238-6-55"
         style="fill:#aea79f;stroke:#2c001e;stroke-width:0;stroke-miterlimit:4;stroke-dasharray:none;stroke-dashoffset:0"
         sodipodi:type="arc" />
      <path
         transform="matrix(0.11666667,0,0,0.11666667,166.89376,1038.8446)"
         d="m -53.149605,24.803141 c 0,5.870743 -4.759178,10.629921 -10.629921,10.629921 -5.870743,0 -10.629921,-4.759178 -10.629921,-10.629921 0,-5.870744 4.759178,-10.629921 10.629921,-10.629921 5.870743,0 10.629921,4.759177 10.629921,10.629921 z"
         sodipodi:ry="10.629921"
         sodipodi:rx="10.629921"
         sodipodi:cy="24.803141"
         sodipodi:cx="-63.779526"
         id="path8238-5-68"
         style="fill:#aea79f;stroke:#2c001e;stroke-width:0;stroke-miterlimit:4;stroke-dasharray:none;stroke-dashoffset:0"
         sodipodi:type="arc" />
      <path
         transform="matrix(0.11666667,0,0,0.11666667,188.15361,1038.8446)"
         d="m -53.149605,24.803141 c 0,5.870743 -4.759178,10.629921 -10.629921,10.629921 -5.870743,0 -10.629921,-4.759178 -10.629921,-10.629921 0,-5.870744 4.759178,-10.629921 10.629921,-10.629921 5.870743,0 10.629921,4.759177 10.629921,10.629921 z"
         sodipodi:ry="10.629921"
         sodipodi:rx="10.629921"
         sodipodi:cy="24.803141"
         sodipodi:cx="-63.779526"
         id="path8238-2-18"
         style="fill:#aea79f;stroke:#2c001e;stroke-width:0;stroke-miterlimit:4;stroke-dasharray:none;stroke-dashoffset:0"
         sodipodi:type="arc" />
      <path
         transform="matrix(0.11666667,0,0,0.11666667,209.41345,1038.8446)"
         d="m -53.149605,24.803141 c 0,5.870743 -4.759178,10.629921 -10.629921,10.629921 -5.870743,0 -10.629921,-4.759178 -10.629921,-10.629921 0,-5.870744 4.759178,-10.629921 10.629921,-10.629921 5.870743,0 10.629921,4.759177 10.629921,10.629921 z"
         sodipodi:ry="10.629921"
         sodipodi:rx="10.629921"
         sodipodi:cy="24.803141"
         sodipodi:cx="-63.779526"
         id="path8238-82-802"
         style="fill:#aea79f;stroke:#2c001e;stroke-width:0;stroke-miterlimit:4;stroke-dasharray:none;stroke-dashoffset:0"
         sodipodi:type="arc" />
      <path
         transform="matrix(0.11666667,0,0,0.11666667,230.67329,1038.8446)"
         d="m -53.149605,24.803141 c 0,5.870743 -4.759178,10.629921 -10.629921,10.629921 -5.870743,0 -10.629921,-4.759178 -10.629921,-10.629921 0,-5.870744 4.759178,-10.629921 10.629921,-10.629921 5.870743,0 10.629921,4.759177 10.629921,10.629921 z"
         sodipodi:ry="10.629921"
         sodipodi:rx="10.629921"
         sodipodi:cy="24.803141"
         sodipodi:cx="-63.779526"
         id="path8238-3-13"
         style="fill:#aea79f;stroke:#2c001e;stroke-width:0;stroke-miterlimit:4;stroke-dasharray:none;stroke-dashoffset:0"
         sodipodi:type="arc" />
      <path
         transform="matrix(0.11666667,0,0,0.11666667,251.93313,1038.8446)"
         d="m -53.149605,24.803141 c 0,5.870743 -4.759178,10.629921 -10.629921,10.629921 -5.870743,0 -10.629921,-4.759178 -10.629921,-10.629921 0,-5.870744 4.759178,-10.629921 10.629921,-10.629921 5.870743,0 10.629921,4.759177 10.629921,10.629921 z"
         sodipodi:ry="10.629921"
         sodipodi:rx="10.629921"
         sodipodi:cy="24.803141"
         sodipodi:cx="-63.779526"
         id="path8238-08-9"
         style="fill:#aea79f;stroke:#2c001e;stroke-width:0;stroke-miterlimit:4;stroke-dasharray:none;stroke-dashoffset:0"
         sodipodi:type="arc" />
    </g>
    <rect
       style="fill:none;stroke:none;stroke-width:0;stroke-miterlimit:4;stroke-dasharray:none;stroke-dashoffset:0"
       id="rect8322"
       width="237.40158"
       height="237.40158"
       x="-7.6293945e-06"
       y="814.96063" />
  </g>
</svg>
